<?xml version="1.0" standalone="no"?>
<!DOCTYPE svg PUBLIC "-//W3C//DTD SVG 20010904//EN"
 "http://www.w3.org/TR/2001/REC-SVG-20010904/DTD/svg10.dtd">
<svg version="1.0" xmlns="http://www.w3.org/2000/svg"
 width="691.000000pt" height="701.000000pt" viewBox="0 0 691.000000 701.000000"
 preserveAspectRatio="xMidYMid meet">

<g transform="translate(0.000000,701.000000) scale(0.100000,-0.100000)"
fill="#000000" stroke="none">
<path d="M0 3505 l0 -3505 3455 0 3455 0 0 3505 0 3505 -3455 0 -3455 0 0
-3505z m680 2007 c134 -6 121 -7 -180 -12 l-325 -5 -3 -22 c-3 -18 3 -23 35
-29 60 -11 74 -23 27 -24 -40 0 -94 29 -94 51 0 6 12 22 26 36 l26 26 171 -7
c95 -3 237 -9 317 -14z m2464 -2 c14 -5 26 -17 26 -26 0 -12 -4 -14 -17 -8
-10 5 -346 11 -748 14 -636 5 -678 6 -325 9 340 3 662 9 977 19 34 1 73 -2 87
-8z m3075 -20 c256 -6 467 -13 470 -17 3 -3 -410 -3 -919 1 -509 3 -986 6
-1060 6 -125 1 -133 2 -110 16 22 13 99 14 590 9 311 -3 774 -10 1029 -15z
m-1729 -10 c0 -5 -8 -10 -17 -10 -15 0 -16 2 -3 10 19 12 20 12 20 0z m-867
-7 c-23 -2 -64 -2 -90 0 -26 2 -7 3 42 3 50 0 71 -1 48 -3z m3107 -18 c0 -8
-2 -15 -4 -15 -2 0 -6 7 -10 15 -3 8 -1 15 4 15 6 0 10 -7 10 -15z m-5396
-1620 c72 -34 109 -142 68 -194 -13 -17 -25 -22 -37 -17 -17 6 -17 8 4 29 32
35 28 80 -12 124 -29 31 -41 37 -88 40 -42 3 -61 0 -87 -16 -49 -31 -59 -62
-37 -112 21 -45 40 -59 84 -59 41 0 48 17 11 25 -32 7 -70 47 -70 74 0 49 66
56 104 10 14 -17 26 -35 26 -40 0 -6 5 -7 10 -4 17 11 11 44 -10 55 -24 13
-26 30 -5 30 23 0 55 -37 55 -64 0 -14 -11 -33 -25 -44 -14 -11 -25 -23 -25
-28 0 -4 -7 -16 -17 -26 -22 -25 -92 -24 -125 2 -55 42 -71 146 -30 183 52 47
144 61 206 32z m156 -254 c0 -11 -17 -17 -73 -27 -38 -6 -38 -6 -19 -28 10
-11 22 -27 26 -33 11 -20 -13 -54 -49 -69 -72 -30 -145 -8 -164 47 -17 48 5
75 71 88 156 33 208 38 208 22z m-168 -493 c109 -227 290 -606 404 -843 113
-236 223 -466 244 -510 35 -73 203 -426 320 -670 311 -647 339 -710 327 -717
-15 -10 8 -55 -851 1740 -367 766 -664 1397 -661 1402 3 6 9 10 13 10 4 0 96
-186 204 -412z m158 270 c0 -24 3 -53 6 -64 5 -21 2 -22 -53 -21 -65 0 -83 -6
-83 -29 0 -22 49 -36 100 -29 52 7 89 -4 119 -36 28 -30 27 -65 -3 -85 -21
-13 -29 -14 -53 -2 -15 7 -36 30 -46 51 -20 39 -37 46 -57 22 -32 -39 24 -86
135 -110 86 -19 125 -49 125 -93 0 -30 -14 -42 -51 -42 -25 0 -24 16 1 23 34
9 25 46 -15 63 -42 17 -109 5 -119 -23 -8 -20 19 -63 39 -63 8 0 15 -7 15 -15
0 -40 -74 10 -86 57 -4 21 0 33 18 51 l25 25 -38 11 c-53 16 -93 65 -86 107 4
26 1 33 -19 42 -13 6 -27 23 -30 38 -10 39 24 64 86 64 44 0 47 2 43 23 -4 21
-8 22 -94 19 -76 -3 -89 -2 -89 12 0 13 13 16 73 16 42 0 82 6 97 14 38 21 40
19 40 -26z m333 -463 c-2 -5 -15 -13 -30 -16 -16 -4 -41 -10 -56 -13 l-29 -7
26 -20 c28 -22 34 -60 13 -77 -7 -6 -33 -14 -57 -18 -116 -18 -97 -51 36 -64
78 -7 91 -11 111 -34 31 -36 30 -81 -2 -102 -34 -22 -99 -29 -136 -14 -38 16
-65 70 -49 100 14 25 13 30 -5 30 -17 0 -65 43 -65 59 0 21 34 41 90 52 47 9
60 16 60 30 0 30 -36 41 -119 38 -45 -3 -77 0 -79 6 -3 10 238 65 273 62 11
-1 19 -6 18 -12z m71 -384 c4 -5 -24 -26 -61 -47 l-68 -38 40 -12 c35 -10 41
-9 49 6 4 10 18 22 30 28 52 23 80 -45 30 -71 l-27 -14 24 -16 c13 -10 36 -17
52 -17 56 0 20 -24 -56 -38 -61 -11 -76 -17 -74 -30 3 -22 -15 -28 -27 -9 -15
24 1 45 44 57 40 11 41 12 27 33 -8 12 -27 26 -43 31 -65 21 -116 46 -112 56
4 12 136 88 155 89 6 1 14 -3 17 -8z m164 -178 c-4 -22 -22 -20 -26 1 -2 10 3
16 13 16 10 0 15 -7 13 -17z m-43 -73 c3 -5 19 -10 36 -10 33 0 39 -19 8 -27
-14 -4 -18 -11 -14 -22 4 -9 9 -22 12 -28 3 -7 -2 -13 -11 -13 -9 0 -16 4 -16
8 0 5 -6 16 -13 26 -12 16 -19 17 -75 6 -71 -14 -81 -23 -57 -50 12 -14 13
-20 4 -26 -15 -9 -49 30 -49 57 0 22 31 37 98 46 32 4 46 11 50 25 5 20 17 24
27 8z m81 -161 c30 -28 32 -78 4 -104 -12 -11 -41 -20 -73 -23 -47 -4 -57 -1
-85 23 -28 23 -33 33 -30 64 2 30 9 39 38 54 46 24 112 18 146 -14z m86 -170
c-2 -19 1 -47 7 -62 12 -30 11 -30 -49 -27 -50 2 -94 -16 -86 -36 9 -23 -3
-37 -20 -23 -39 32 4 78 80 86 36 4 43 8 39 24 -5 16 -15 18 -91 16 -55 -1
-86 2 -89 9 -2 7 26 13 84 17 65 4 90 9 98 21 16 26 30 12 27 -25z m1028 -139
c21 -10 56 -40 79 -66 40 -46 131 -212 131 -239 0 -37 20 -18 40 38 44 123
122 227 203 268 201 104 340 -108 247 -376 -46 -134 -183 -371 -318 -553 -75
-101 -77 -101 -165 -51 -291 169 -488 461 -488 724 0 101 8 136 47 202 47 80
131 100 224 53z m-885 0 c0 -8 -8 -16 -17 -18 -13 -2 -18 3 -18 18 0 15 5 20
18 18 9 -2 17 -10 17 -18z m-75 -13 c0 -8 -27 -18 -72 -28 -52 -10 -74 -19
-76 -30 -4 -21 14 -28 101 -35 86 -8 111 -21 127 -69 16 -48 -4 -70 -68 -79
-26 -3 -54 -11 -62 -16 -13 -8 -13 -11 3 -27 14 -14 34 -17 107 -17 75 1 90
-2 85 -14 -3 -8 6 -22 20 -34 29 -23 33 -63 8 -77 -10 -5 -39 -12 -64 -16 -25
-4 -52 -11 -60 -16 -27 -16 13 -38 81 -45 36 -3 75 -7 87 -10 34 -7 63 -44 63
-81 0 -44 -35 -67 -105 -67 -43 -1 -58 4 -79 23 -28 26 -36 84 -14 97 7 4 -1
13 -22 23 -77 37 -65 78 31 101 78 19 90 42 34 66 -28 11 -51 13 -94 7 -76
-10 -76 -10 -76 7 0 8 -11 24 -23 34 -19 15 -23 25 -18 47 3 16 1 29 -4 29
-31 0 -55 79 -29 96 8 4 -2 14 -24 25 -42 22 -56 54 -34 77 9 8 44 21 79 28
84 16 98 16 98 1z m1907 -219 c-3 -8 -6 -5 -6 6 -1 11 2 17 5 13 3 -3 4 -12 1
-19z m-1719 -521 c4 -20 -25 -34 -40 -19 -15 15 -1 44 19 40 10 -2 19 -11 21
-21z m257 -31 c22 -10 41 -27 51 -49 33 -69 -3 -111 -111 -130 -83 -14 -138 1
-165 46 -27 43 -25 73 6 102 45 42 155 57 219 31z m82 -226 c13 -16 33 -30 44
-30 10 0 19 -6 19 -14 0 -10 -35 -20 -121 -36 -103 -19 -119 -25 -113 -39 15
-38 16 -51 2 -51 -14 0 -78 119 -78 145 0 25 19 17 36 -16 17 -34 11 -34 141
-8 l53 10 -15 29 c-18 34 -18 40 -4 40 6 0 22 -13 36 -30z m129 -184 c39 -39
44 -76 14 -106 -21 -21 -65 -26 -89 -11 -10 7 -20 2 -33 -15 -15 -18 -29 -24
-60 -24 -81 0 -139 99 -88 150 22 22 36 25 45 9 4 -6 -2 -17 -14 -25 -27 -19
-27 -44 0 -78 13 -17 30 -26 49 -26 33 0 64 26 56 46 -3 8 -9 21 -12 29 -11
27 21 16 44 -15 32 -42 92 -37 92 7 0 23 -48 63 -75 63 -16 0 -25 6 -25 15 0
30 59 18 96 -19z m310 -233 c-7 -7 -36 60 -35 79 0 7 10 -7 21 -30 11 -24 17
-46 14 -49z"/>
<path d="M1202 3723 c4 -20 53 -51 64 -41 4 4 -1 19 -10 33 -19 29 -59 35 -54
8z"/>
<path d="M1246 3514 c-21 -20 -20 -30 5 -55 39 -39 161 -11 144 33 -14 36
-119 52 -149 22z"/>
<path d="M1480 3185 c0 -15 31 -63 43 -68 22 -8 40 8 33 30 -8 25 -76 58 -76
38z"/>
<path d="M1695 2638 c-39 -22 -43 -40 -15 -68 38 -38 140 -19 140 26 0 44 -76
70 -125 42z"/>
<path d="M1883 2423 c-18 -6 -16 -23 1 -23 17 0 30 16 19 23 -5 2 -14 2 -20 0z"/>
<path d="M1958 2088 c-55 -19 -24 -88 40 -88 76 0 107 36 67 76 -26 26 -60 30
-107 12z"/>
<path d="M3043 1760 c-37 -22 -51 -45 -69 -115 -49 -181 48 -433 239 -627 81
-83 251 -208 281 -208 11 0 128 165 199 281 132 215 197 375 197 484 0 126
-53 204 -140 204 -115 1 -229 -132 -281 -326 -28 -106 -26 -103 -43 -97 -8 3
-24 35 -36 71 -25 77 -91 214 -127 262 -36 47 -109 91 -152 91 -20 0 -50 -9
-68 -20z"/>
<path d="M2163 1640 c-16 -6 -23 -18 -23 -35 0 -37 36 -50 102 -39 60 10 72
30 39 63 -22 22 -77 27 -118 11z"/>
<path d="M2363 1230 c-48 -19 -14 -90 43 -90 11 0 35 5 53 11 35 12 42 46 15
73 -17 17 -75 20 -111 6z"/>
<path d="M2565 983 c-80 -17 -108 -50 -78 -91 23 -31 65 -45 113 -37 98 16
130 42 109 89 -17 37 -78 54 -144 39z"/>
</g>
</svg>
