<?xml version="1.0" standalone="no"?>
<!DOCTYPE svg PUBLIC "-//W3C//DTD SVG 20010904//EN"
 "http://www.w3.org/TR/2001/REC-SVG-20010904/DTD/svg10.dtd">
<svg version="1.0" xmlns="http://www.w3.org/2000/svg"
 width="691.000000pt" height="691.000000pt" viewBox="0 0 691.000000 691.000000"
 preserveAspectRatio="xMidYMid meet">

<g transform="translate(0.000000,691.000000) scale(0.100000,-0.100000)"
fill="#000000" stroke="none">
<path d="M6504 6399 c-10 -17 13 -36 27 -22 12 12 4 33 -11 33 -5 0 -12 -5
-16 -11z"/>
<path d="M4428 6263 c7 -3 16 -2 19 1 4 3 -2 6 -13 5 -11 0 -14 -3 -6 -6z"/>
<path d="M4560 6224 c0 -8 5 -12 10 -9 6 4 8 11 5 16 -9 14 -15 11 -15 -7z"/>
<path d="M2888 6223 c6 -2 18 -2 25 0 6 3 1 5 -13 5 -14 0 -19 -2 -12 -5z"/>
<path d="M568 6213 c7 -3 16 -2 19 1 4 3 -2 6 -13 5 -11 0 -14 -3 -6 -6z"/>
<path d="M3170 6216 c0 -2 7 -6 15 -10 8 -3 15 -1 15 4 0 6 -7 10 -15 10 -8 0
-15 -2 -15 -4z"/>
<path d="M357 6152 c-187 -2 -188 -3 -185 -24 2 -17 14 -25 45 -33 23 -5 48
-16 55 -22 6 -7 22 -13 34 -13 23 0 86 -29 92 -42 2 -5 10 -8 17 -8 16 0 128
-73 156 -101 10 -10 23 -19 27 -19 17 0 238 -226 292 -299 14 -18 41 -52 60
-76 19 -23 42 -52 50 -65 8 -12 21 -28 28 -36 6 -7 12 -20 12 -28 0 -9 3 -16
8 -16 13 0 119 -170 138 -222 3 -10 10 -18 15 -18 5 0 9 -7 9 -15 0 -8 5 -15
10 -15 6 0 10 -8 10 -19 0 -10 7 -24 15 -31 8 -7 15 -21 15 -31 0 -10 5 -21
10 -24 6 -3 10 -15 10 -26 0 -10 4 -19 10 -19 8 0 61 -105 102 -200 27 -63 44
-95 51 -98 4 -2 7 -9 7 -15 0 -6 27 -68 60 -137 34 -69 72 -150 87 -180 31
-68 57 -118 94 -190 16 -30 29 -60 29 -66 0 -6 6 -17 14 -23 8 -7 17 -24 21
-39 8 -31 37 -94 65 -137 10 -16 19 -38 19 -47 1 -10 5 -18 11 -18 5 0 13 -12
16 -27 4 -16 18 -45 31 -65 12 -21 23 -42 23 -48 0 -6 4 -18 9 -28 31 -57 131
-271 131 -281 0 -6 5 -11 10 -11 6 0 10 -8 10 -19 0 -10 7 -24 15 -31 8 -7 15
-18 15 -24 0 -7 25 -62 54 -122 30 -60 60 -120 65 -134 6 -14 15 -32 21 -40
20 -32 80 -163 80 -176 0 -8 5 -14 10 -14 6 0 10 -9 10 -19 0 -10 7 -21 15
-25 8 -3 15 -12 15 -20 0 -14 37 -99 59 -136 8 -14 18 -35 50 -110 6 -14 15
-32 21 -40 13 -21 130 -268 130 -276 0 -3 7 -12 15 -21 8 -8 13 -18 10 -23 -3
-4 2 -13 10 -20 8 -7 15 -18 15 -24 0 -7 9 -31 20 -54 11 -23 25 -53 30 -67 5
-14 14 -25 20 -25 5 0 10 -6 10 -14 0 -8 7 -27 15 -43 42 -80 195 -403 195
-411 0 -5 7 -15 15 -22 8 -7 15 -19 15 -27 0 -13 40 -100 77 -168 12 -22 35
-77 35 -85 0 -3 9 -16 19 -29 11 -13 19 -32 19 -43 0 -11 5 -16 10 -13 6 4 10
-7 10 -24 0 -17 3 -31 8 -31 9 0 15 -12 117 -223 50 -103 81 -157 91 -157 18
0 53 38 54 58 0 7 7 15 15 18 8 4 12 11 9 16 -4 5 3 23 15 39 11 15 21 32 21
36 0 4 36 80 80 167 44 88 80 165 80 172 0 7 6 19 13 26 8 7 17 26 21 41 3 15
15 36 26 47 11 11 20 28 20 39 0 10 7 24 15 31 8 7 15 19 15 26 0 13 45 114
68 154 20 34 52 106 52 116 0 6 22 55 49 110 57 115 93 195 112 244 7 19 15
37 18 40 11 10 41 72 41 85 0 7 10 31 21 53 21 40 22 41 4 79 -32 69 -51 108
-63 128 -21 36 -62 132 -62 143 0 7 -4 12 -9 12 -5 0 -13 10 -16 23 -4 12 -22
54 -40 92 -18 39 -39 87 -46 108 -7 20 -17 37 -21 37 -4 0 -8 4 -8 10 0 11
-55 136 -124 280 -14 30 -26 63 -26 73 0 9 -4 17 -8 17 -8 0 -19 22 -69 140
-13 30 -28 63 -33 72 -6 10 -10 27 -10 38 0 11 -4 20 -9 20 -5 0 -13 10 -17
23 -3 12 -22 56 -42 97 -66 141 -86 185 -93 205 -4 11 -46 100 -93 198 -47 98
-86 184 -86 192 0 8 -5 17 -10 20 -6 3 -19 25 -30 48 -11 23 -24 49 -30 57
-12 21 -165 342 -253 530 -16 36 -34 73 -38 82 -5 10 -9 27 -9 38 0 11 -4 20
-10 20 -5 0 -10 9 -10 19 0 11 -4 22 -9 26 -5 3 -13 20 -17 37 -3 18 -10 39
-15 48 -12 20 -32 72 -33 85 -1 6 -6 24 -12 40 -25 67 -34 103 -34 133 0 18
-4 32 -10 32 -5 0 -10 19 -10 43 0 24 -5 48 -11 54 -14 14 -16 265 -2 295 49
106 70 140 116 188 54 55 175 128 194 117 6 -4 19 3 29 14 14 16 26 19 50 15
17 -4 38 -4 47 -1 19 8 11 42 -12 55 -9 5 -467 13 -1017 20 -915 10 -1240 10
-1777 2z m3483 -3708 c14 -9 39 -37 56 -63 27 -43 29 -52 29 -146 0 -113 -12
-157 -81 -300 -77 -162 -289 -481 -336 -506 -15 -8 -34 -2 -97 36 -284 166
-482 461 -482 720 -1 97 13 153 52 210 26 38 90 75 130 75 44 0 124 -46 168
-96 39 -45 131 -214 131 -241 0 -7 4 -14 9 -17 5 -3 18 22 31 57 31 87 65 144
119 200 52 54 85 75 151 92 47 12 70 8 120 -21z"/>
<path d="M3027 2399 c-41 -41 -67 -121 -67 -204 0 -58 34 -212 51 -229 5 -6 9
-16 9 -23 0 -7 25 -54 56 -104 57 -92 190 -236 263 -285 20 -13 58 -40 86 -59
27 -19 55 -35 61 -35 32 0 245 323 324 492 92 199 105 336 40 424 -58 78 -162
70 -252 -20 -48 -48 -112 -175 -133 -266 -10 -41 -21 -78 -25 -83 -12 -13 -36
26 -64 103 -41 117 -107 230 -160 274 -38 33 -55 40 -101 44 -51 4 -57 2 -88
-29z"/>
<path d="M6761 6134 c0 -11 3 -14 6 -6 3 7 2 16 -1 19 -3 4 -6 -2 -5 -13z"/>
<path d="M4497 6123 c-12 -12 -7 -40 9 -54 9 -7 34 -12 59 -10 23 1 59 -5 80
-13 21 -9 46 -16 56 -16 11 0 19 -3 19 -7 0 -5 19 -17 43 -28 23 -11 58 -36
78 -55 20 -19 49 -46 65 -60 89 -78 207 -273 243 -400 7 -25 17 -53 22 -62 5
-10 12 -42 15 -73 4 -31 11 -58 15 -61 5 -3 9 -26 9 -52 0 -26 7 -72 15 -102
19 -67 23 -276 6 -293 -12 -12 -15 -113 -3 -120 21 -13 52 18 86 84 95 186
129 245 168 292 24 29 46 54 51 55 4 2 7 12 7 21 0 10 20 40 45 67 25 27 45
51 45 55 0 6 9 17 105 120 28 30 61 68 75 84 14 17 48 48 75 70 28 22 74 63
104 92 44 43 57 51 72 42 14 -7 19 -6 19 3 1 26 66 83 141 123 11 5 19 13 19
17 0 5 5 8 10 8 6 0 28 11 50 25 22 14 45 25 52 25 7 0 19 9 25 19 7 11 27 22
44 26 18 4 39 14 47 21 7 8 22 14 32 14 10 0 22 5 25 10 3 6 19 10 36 10 16 0
29 5 29 10 0 6 10 10 23 10 13 0 32 7 43 15 24 18 61 19 67 3 2 -7 7 5 11 26
5 25 4 41 -4 46 -26 16 -2217 29 -2233 13z"/>
<path d="M3120 6010 c0 -5 9 -10 20 -10 11 0 20 5 20 10 0 6 -9 10 -20 10 -11
0 -20 -4 -20 -10z"/>
<path d="M6710 5999 c0 -5 5 -7 10 -4 6 3 10 8 10 11 0 2 -4 4 -10 4 -5 0 -10
-5 -10 -11z"/>
<path d="M3054 5963 c4 -39 26 -42 26 -4 0 20 -5 31 -14 31 -10 0 -14 -9 -12
-27z"/>
<path d="M6608 5973 c7 -3 16 -2 19 1 4 3 -2 6 -13 5 -11 0 -14 -3 -6 -6z"/>
<path d="M4720 5949 c0 -5 5 -7 10 -4 6 3 10 8 10 11 0 2 -4 4 -10 4 -5 0 -10
-5 -10 -11z"/>
<path d="M430 5930 c0 -5 5 -10 11 -10 5 0 7 5 4 10 -3 6 -8 10 -11 10 -2 0
-4 -4 -4 -10z"/>
<path d="M2872 5850 c0 -14 2 -19 5 -12 2 6 2 18 0 25 -3 6 -5 1 -5 -13z"/>
<path d="M4830 5840 c0 -11 5 -20 10 -20 6 0 10 9 10 20 0 11 -4 20 -10 20 -5
0 -10 -9 -10 -20z"/>
<path d="M4962 5750 c0 -14 2 -19 5 -12 2 6 2 18 0 25 -3 6 -5 1 -5 -13z"/>
<path d="M5050 5619 c0 -5 5 -7 10 -4 6 3 10 8 10 11 0 2 -4 4 -10 4 -5 0 -10
-5 -10 -11z"/>
<path d="M881 5534 c0 -11 3 -14 6 -6 3 7 2 16 -1 19 -3 4 -6 -2 -5 -13z"/>
<path d="M6000 5536 c25 -15 45 -12 35 5 -4 5 -18 9 -33 9 l-27 -1 25 -13z"/>
<path d="M890 5490 c0 -5 5 -10 11 -10 5 0 7 5 4 10 -3 6 -8 10 -11 10 -2 0
-4 -4 -4 -10z"/>
<path d="M907 5440 c-16 -19 -16 -20 2 -20 21 0 44 23 34 33 -10 11 -17 8 -36
-13z"/>
<path d="M5121 5430 c0 -8 4 -22 9 -30 12 -18 12 -2 0 25 -6 13 -9 15 -9 5z"/>
<path d="M730 5416 c-10 -13 -9 -17 4 -22 22 -8 49 3 44 19 -7 18 -33 20 -48
3z"/>
<path d="M5695 5310 c-3 -6 1 -7 9 -4 18 7 21 14 7 14 -6 0 -13 -4 -16 -10z"/>
<path d="M2780 5300 c0 -5 5 -10 11 -10 5 0 7 5 4 10 -3 6 -8 10 -11 10 -2 0
-4 -4 -4 -10z"/>
<path d="M5161 5294 c0 -11 3 -14 6 -6 3 7 2 16 -1 19 -3 4 -6 -2 -5 -13z"/>
<path d="M5080 5239 c0 -17 5 -29 11 -27 6 2 10 7 10 11 -1 4 -1 16 -1 27 0
11 -4 20 -10 20 -5 0 -10 -14 -10 -31z"/>
<path d="M1120 5181 c0 -6 4 -13 10 -16 6 -3 7 1 4 9 -7 18 -14 21 -14 7z"/>
<path d="M2861 5134 c0 -11 3 -14 6 -6 3 7 2 16 -1 19 -3 4 -6 -2 -5 -13z"/>
<path d="M5591 5124 c0 -11 3 -14 6 -6 3 7 2 16 -1 19 -3 4 -6 -2 -5 -13z"/>
<path d="M1201 4974 c0 -11 3 -14 6 -6 3 7 2 16 -1 19 -3 4 -6 -2 -5 -13z"/>
<path d="M2930 4949 c0 -5 5 -7 10 -4 6 3 10 8 10 11 0 2 -4 4 -10 4 -5 0 -10
-5 -10 -11z"/>
<path d="M5162 4925 c0 -16 2 -22 5 -12 2 9 2 23 0 30 -3 6 -5 -1 -5 -18z"/>
<path d="M4941 4926 c-9 -10 -8 -15 4 -20 10 -4 15 1 15 14 0 24 -4 25 -19 6z"/>
<path d="M5400 4915 c0 -8 2 -15 4 -15 2 0 6 7 10 15 3 8 1 15 -4 15 -6 0 -10
-7 -10 -15z"/>
<path d="M1178 4903 c7 -3 16 -2 19 1 4 3 -2 6 -13 5 -11 0 -14 -3 -6 -6z"/>
<path d="M4845 4880 c-8 -16 -15 -35 -15 -43 0 -17 28 -81 50 -114 40 -61 68
15 35 93 -8 20 -16 49 -17 65 -3 39 -33 39 -53 -1z"/>
<path d="M1280 4860 c0 -6 7 -10 15 -10 8 0 15 2 15 4 0 2 -7 6 -15 10 -8 3
-15 1 -15 -4z"/>
<path d="M4925 4830 c-3 -5 -1 -10 4 -10 6 0 11 5 11 10 0 6 -2 10 -4 10 -3 0
-8 -4 -11 -10z"/>
<path d="M4802 4760 c0 -14 2 -19 5 -12 2 6 2 18 0 25 -3 6 -5 1 -5 -13z"/>
<path d="M4988 4760 c-14 -10 -28 -16 -32 -12 -4 3 -4 -1 0 -11 3 -9 2 -17 -4
-17 -16 0 -35 -88 -29 -135 8 -56 27 -94 82 -165 49 -64 95 -150 95 -180 0
-11 -7 -23 -15 -26 -19 -8 -47 14 -38 29 3 6 1 7 -5 3 -11 -7 -34 10 -106 78
-50 46 -78 58 -120 50 -48 -9 -71 -48 -71 -121 0 -61 0 -61 -20 -44 -11 10
-33 29 -49 42 -15 13 -46 41 -68 62 -22 20 -46 37 -53 37 -7 0 -15 -17 -19
-37 -5 -32 -2 -41 17 -57 36 -30 160 -139 185 -163 12 -13 27 -23 32 -23 4 0
10 -3 12 -7 2 -5 39 -39 83 -77 44 -38 83 -76 87 -85 4 -9 7 -12 7 -7 1 5 8 2
17 -5 14 -11 18 -10 30 6 19 25 18 62 -1 73 -9 4 -47 38 -84 75 -82 79 -114
137 -109 199 4 63 32 63 98 -1 66 -64 137 -111 167 -111 57 0 93 49 93 125 0
25 5 45 10 45 6 0 10 8 10 17 0 15 -2 14 -14 -3 -14 -18 -15 -18 -25 9 -15 38
-16 37 24 37 28 0 45 9 77 39 41 37 42 42 46 108 5 81 -5 105 -71 179 -78 86
-183 119 -239 74z m136 -86 c86 -55 123 -136 92 -201 -16 -33 -19 -35 -54 -30
-88 11 -185 124 -168 194 17 67 63 80 130 37z"/>
<path d="M5075 4650 c-3 -5 -1 -10 4 -10 6 0 11 5 11 10 0 6 -2 10 -4 10 -3 0
-8 -4 -11 -10z"/>
<path d="M5020 4605 c1 -6 7 -21 16 -35 l15 -25 -7 25 c-7 26 -24 52 -24 35z"/>
<path d="M5120 4590 c0 -5 5 -10 11 -10 5 0 7 5 4 10 -3 6 -8 10 -11 10 -2 0
-4 -4 -4 -10z"/>
<path d="M5060 4531 c0 -5 7 -11 14 -14 10 -4 13 -1 9 9 -6 15 -23 19 -23 5z"/>
<path d="M3031 4734 c0 -11 3 -14 6 -6 3 7 2 16 -1 19 -3 4 -6 -2 -5 -13z"/>
<path d="M4810 4720 c0 -5 5 -10 10 -10 6 0 10 5 10 10 0 6 -4 10 -10 10 -5 0
-10 -4 -10 -10z"/>
<path d="M1372 4685 c0 -16 2 -22 5 -12 2 9 2 23 0 30 -3 6 -5 -1 -5 -18z"/>
<path d="M5342 4600 c0 -14 2 -19 5 -12 2 6 2 18 0 25 -3 6 -5 1 -5 -13z"/>
<path d="M4890 4530 c0 -5 5 -10 10 -10 6 0 10 5 10 10 0 6 -4 10 -10 10 -5 0
-10 -4 -10 -10z"/>
<path d="M1450 4504 c0 -14 4 -23 9 -20 5 3 7 15 4 26 -7 28 -13 25 -13 -6z"/>
<path d="M4921 4494 c0 -11 3 -14 6 -6 3 7 2 16 -1 19 -3 4 -6 -2 -5 -13z"/>
<path d="M5342 4425 c0 -16 2 -22 5 -12 2 9 2 23 0 30 -3 6 -5 -1 -5 -18z"/>
<path d="M4740 4399 c0 -5 5 -7 10 -4 6 3 10 8 10 11 0 2 -4 4 -10 4 -5 0 -10
-5 -10 -11z"/>
<path d="M4480 4386 c0 -9 5 -16 10 -16 6 0 10 4 10 9 0 6 -4 13 -10 16 -5 3
-10 -1 -10 -9z"/>
<path d="M4914 4384 c3 -9 6 -18 6 -20 0 -3 5 -2 10 1 6 3 13 -1 16 -9 3 -9
10 -13 15 -10 14 9 10 24 -6 24 -9 0 -18 7 -21 15 -4 8 -11 15 -16 15 -6 0 -7
-7 -4 -16z"/>
<path d="M4990 4381 c0 -10 19 -25 25 -20 1 2 -3 10 -11 17 -8 7 -14 8 -14 3z"/>
<path d="M5034 4342 c4 -7 1 -24 -8 -37 -13 -20 -14 -25 0 -35 12 -11 13 -10
8 3 -3 8 0 25 6 37 9 17 9 25 -1 34 -9 8 -10 8 -5 -2z"/>
<path d="M4500 4320 c0 -5 5 -10 10 -10 6 0 10 5 10 10 0 6 -4 10 -10 10 -5 0
-10 -4 -10 -10z"/>
<path d="M5072 4250 c0 -14 2 -19 5 -12 2 6 2 18 0 25 -3 6 -5 1 -5 -13z"/>
<path d="M5191 4254 c0 -11 3 -14 6 -6 3 7 2 16 -1 19 -3 4 -6 -2 -5 -13z"/>
<path d="M3271 4244 c0 -11 3 -14 6 -6 3 7 2 16 -1 19 -3 4 -6 -2 -5 -13z"/>
<path d="M4861 4216 c-1 -21 -5 -27 -16 -22 -8 3 -15 1 -15 -4 0 -13 37 -13
44 -1 4 5 2 20 -3 33 -10 22 -10 22 -10 -6z"/>
<path d="M4560 4211 c0 -9 30 -24 36 -18 2 1 -6 8 -16 15 -11 7 -20 8 -20 3z"/>
<path d="M1360 4169 c0 -26 4 -39 11 -37 17 6 19 66 3 72 -11 4 -14 -5 -14
-35z"/>
<path d="M4915 4190 c3 -5 8 -10 11 -10 2 0 4 5 4 10 0 6 -5 10 -11 10 -5 0
-7 -4 -4 -10z"/>
<path d="M4561 4164 c0 -11 3 -14 6 -6 3 7 2 16 -1 19 -3 4 -6 -2 -5 -13z"/>
<path d="M4881 4164 c0 -11 3 -14 6 -6 3 7 2 16 -1 19 -3 4 -6 -2 -5 -13z"/>
<path d="M1600 4150 c0 -5 7 -7 15 -4 8 4 15 8 15 10 0 2 -7 4 -15 4 -8 0 -15
-4 -15 -10z"/>
<path d="M4860 4135 c7 -9 15 -13 17 -11 7 7 -7 26 -19 26 -6 0 -6 -6 2 -15z"/>
<path d="M4990 4120 c0 -5 7 -10 16 -10 8 0 12 5 9 10 -3 6 -10 10 -16 10 -5
0 -9 -4 -9 -10z"/>
<path d="M5180 4119 c0 -5 5 -7 10 -4 6 3 10 8 10 11 0 2 -4 4 -10 4 -5 0 -10
-5 -10 -11z"/>
<path d="M4910 4080 c0 -5 5 -10 10 -10 6 0 10 5 10 10 0 6 -4 10 -10 10 -5 0
-10 -4 -10 -10z"/>
<path d="M1686 4033 c-6 -14 -5 -15 5 -6 7 7 10 15 7 18 -3 3 -9 -2 -12 -12z"/>
<path d="M4622 4029 c-7 -10 -17 -17 -24 -15 -7 1 -10 1 -6 -1 3 -2 0 -20 -8
-38 -8 -19 -14 -60 -14 -91 0 -45 6 -68 32 -113 17 -31 35 -58 38 -61 16 -12
80 -209 80 -245 0 -33 -33 -95 -50 -95 -6 0 -8 5 -5 10 3 6 2 10 -3 10 -6 0
-13 -7 -16 -16 -5 -14 -9 -13 -36 3 -17 9 -29 20 -27 23 43 75 59 126 55 181
-4 51 -9 65 -35 91 -57 56 -134 43 -168 -29 -43 -90 -24 -185 52 -270 23 -26
43 -51 43 -55 0 -4 6 -13 13 -20 17 -17 47 -82 47 -101 0 -29 -26 -40 -57 -24
-41 22 -113 95 -113 116 0 18 -60 73 -74 68 -8 -3 -17 -1 -20 6 -3 7 -4 3 -1
-8 9 -41 -65 -129 -122 -144 -38 -10 -49 -54 -18 -71 13 -7 31 -10 40 -6 20 7
98 -52 88 -67 -3 -6 -2 -7 4 -4 18 11 171 -171 160 -190 -3 -5 1 -14 9 -20 8
-8 15 -9 19 -3 3 6 1 10 -5 10 -7 0 -5 7 4 16 39 38 29 79 -33 148 -18 19 -22
30 -13 33 6 3 9 9 6 15 -4 7 -9 6 -13 -1 -4 -6 -32 14 -72 52 l-64 64 25 25
25 24 40 -48 c64 -78 102 -103 157 -103 35 0 52 5 67 21 28 31 36 102 17 147
l-15 37 30 0 c38 0 84 32 106 73 22 42 22 176 -1 229 -9 21 -16 39 -16 41 0 2
29 3 65 2 35 0 62 1 60 4 -3 2 2 9 9 15 63 50 74 209 18 265 -13 13 -16 12
-29 -5 -8 -10 -18 -18 -23 -17 -4 1 -2 -19 6 -44 8 -25 14 -56 14 -68 0 -34
-37 -75 -68 -75 -44 1 -116 61 -147 124 -24 49 -26 59 -15 90 6 20 16 38 21
42 17 10 49 -7 49 -26 0 -14 5 -17 23 -13 22 6 57 31 57 42 0 3 -15 22 -33 42
-28 31 -38 36 -78 36 -34 0 -49 -4 -57 -18z m-54 -458 c2 -18 -6 -50 -20 -77
l-22 -46 -19 23 c-10 12 -16 28 -13 36 3 7 1 13 -4 13 -18 0 3 88 24 102 19
12 51 -18 54 -51z"/>
<path d="M4510 3540 c0 -5 5 -10 10 -10 6 0 10 5 10 10 0 6 -4 10 -10 10 -5 0
-10 -4 -10 -10z"/>
<path d="M5000 4000 c0 -5 9 -14 20 -20 19 -10 20 -10 8 9 -13 22 -28 28 -28
11z"/>
<path d="M4796 3987 c3 -10 9 -15 12 -12 3 3 0 11 -7 18 -10 9 -11 8 -5 -6z"/>
<path d="M4830 3978 c0 -9 -3 -25 -6 -35 -4 -11 -3 -14 3 -7 4 6 13 13 20 15
8 3 8 9 -3 23 -11 16 -14 17 -14 4z"/>
<path d="M3426 3934 c-4 -9 -4 -19 -1 -22 2 -3 7 3 11 12 4 9 4 19 1 22 -2 3
-7 -3 -11 -12z"/>
<path d="M1771 3864 c0 -11 3 -14 6 -6 3 7 2 16 -1 19 -3 4 -6 -2 -5 -13z"/>
<path d="M4670 3841 c0 -6 5 -13 10 -16 6 -3 10 1 10 9 0 9 -4 16 -10 16 -5 0
-10 -4 -10 -9z"/>
<path d="M4842 3805 c0 -16 2 -22 5 -12 2 9 2 23 0 30 -3 6 -5 -1 -5 -18z"/>
<path d="M4810 3750 c0 -11 4 -20 9 -20 5 0 7 9 4 20 -3 11 -7 20 -9 20 -2 0
-4 -9 -4 -20z"/>
<path d="M4488 3743 c6 -2 18 -2 25 0 6 3 1 5 -13 5 -14 0 -19 -2 -12 -5z"/>
<path d="M4590 3720 c0 -5 5 -10 11 -10 5 0 7 5 4 10 -3 6 -8 10 -11 10 -2 0
-4 -4 -4 -10z"/>
<path d="M4953 3695 c0 -22 2 -30 4 -17 2 12 2 30 0 40 -3 9 -5 -1 -4 -23z"/>
<path d="M4935 3630 c-3 -5 -1 -10 4 -10 6 0 11 5 11 10 0 6 -2 10 -4 10 -3 0
-8 -4 -11 -10z"/>
<path d="M4800 3610 c0 -5 5 -10 10 -10 6 0 10 5 10 10 0 6 -4 10 -10 10 -5 0
-10 -4 -10 -10z"/>
<path d="M3581 3564 c0 -11 3 -14 6 -6 3 7 2 16 -1 19 -3 4 -6 -2 -5 -13z"/>
<path d="M1921 3454 c0 -11 3 -14 6 -6 3 7 2 16 -1 19 -3 4 -6 -2 -5 -13z"/>
<path d="M3662 3415 c0 -16 2 -22 5 -12 2 9 2 23 0 30 -3 6 -5 -1 -5 -18z"/>
<path d="M4640 3426 c0 -8 4 -17 8 -20 4 -2 8 4 8 15 0 10 -4 19 -8 19 -4 0
-8 -6 -8 -14z"/>
<path d="M4400 3408 c0 -19 2 -20 10 -8 13 19 13 30 0 30 -5 0 -10 -10 -10
-22z"/>
<path d="M4681 3414 c0 -11 3 -14 6 -6 3 7 2 16 -1 19 -3 4 -6 -2 -5 -13z"/>
<path d="M4420 3370 c0 -5 5 -10 10 -10 6 0 10 5 10 10 0 6 -4 10 -10 10 -5 0
-10 -4 -10 -10z"/>
<path d="M4770 3335 c-11 -13 -10 -14 4 -9 9 3 16 10 16 15 0 13 -6 11 -20 -6z"/>
<path d="M1965 3300 c28 -4 54 -3 60 1 5 5 -16 8 -50 8 l-60 -2 50 -7z"/>
<path d="M4465 3280 c-3 -5 -1 -10 4 -10 6 0 11 5 11 10 0 6 -2 10 -4 10 -3 0
-8 -4 -11 -10z"/>
<path d="M3725 3261 c-3 -5 -1 -12 5 -16 5 -3 10 1 10 9 0 18 -6 21 -15 7z"/>
<path d="M4465 3250 c3 -5 8 -10 11 -10 2 0 4 5 4 10 0 6 -5 10 -11 10 -5 0
-7 -4 -4 -10z"/>
<path d="M4672 3190 c0 -14 2 -19 5 -12 2 6 2 18 0 25 -3 6 -5 1 -5 -13z"/>
<path d="M4712 3180 c0 -14 2 -19 5 -12 2 6 2 18 0 25 -3 6 -5 1 -5 -13z"/>
<path d="M4691 3164 c0 -11 3 -14 6 -6 3 7 2 16 -1 19 -3 4 -6 -2 -5 -13z"/>
<path d="M4386 3147 c2 -7 13 -13 24 -13 14 0 16 3 8 13 -6 7 -17 13 -24 13
-7 0 -11 -6 -8 -13z"/>
<path d="M4660 3141 c0 -6 4 -13 10 -16 6 -3 7 1 4 9 -7 18 -14 21 -14 7z"/>
<path d="M4030 3120 c0 -5 5 -10 10 -10 6 0 10 5 10 10 0 6 -4 10 -10 10 -5 0
-10 -4 -10 -10z"/>
<path d="M4155 3120 c3 -5 11 -10 16 -10 6 0 7 5 4 10 -3 6 -11 10 -16 10 -6
0 -7 -4 -4 -10z"/>
<path d="M3920 3110 c0 -5 7 -7 15 -4 8 4 15 8 15 10 0 2 -7 4 -15 4 -8 0 -15
-4 -15 -10z"/>
<path d="M3960 3090 c-8 -5 -12 -12 -9 -15 4 -3 12 1 19 10 14 17 11 19 -10 5z"/>
<path d="M4145 3090 c-3 -5 -2 -10 4 -10 5 0 13 5 16 10 3 6 2 10 -4 10 -5 0
-13 -4 -16 -10z"/>
<path d="M3987 3060 c-35 -30 -75 -103 -107 -192 l-13 -36 57 -54 c32 -29 72
-64 88 -78 17 -14 51 -44 76 -68 26 -24 66 -58 90 -75 41 -30 49 -41 35 -50
-5 -2 -2 -2 6 0 8 2 29 -11 48 -29 32 -31 33 -31 48 -12 9 10 23 36 32 57 12
29 18 35 25 25 6 -9 7 -6 3 9 -4 14 5 43 26 84 41 77 46 135 20 214 -11 33
-20 54 -20 47 -1 -9 -8 -7 -21 6 -34 31 -96 55 -124 48 -36 -9 -39 -7 -53 33
-9 25 -9 37 -2 42 8 5 8 9 0 13 -6 4 -11 2 -11 -4 0 -6 -16 1 -35 16 -24 18
-52 29 -84 32 -43 4 -52 1 -84 -28z m124 -78 c27 -24 31 -35 31 -73 -1 -24
-11 -64 -23 -89 -35 -72 -38 -75 -71 -43 -21 20 -25 29 -16 36 9 5 6 6 -8 3
-14 -4 -28 2 -44 19 l-23 24 23 53 c24 55 61 98 85 98 8 0 29 -13 46 -28z
m182 -113 c58 -32 81 -82 62 -139 -23 -68 -37 -100 -46 -100 -5 0 -9 -8 -9
-17 -1 -42 -15 -41 -64 3 -27 25 -58 52 -71 60 l-21 14 37 79 c21 44 48 86 61
95 27 19 24 19 51 5z"/>
<path d="M4091 2944 c0 -11 3 -14 6 -6 3 7 2 16 -1 19 -3 4 -6 -2 -5 -13z"/>
<path d="M4270 2840 c0 -5 4 -10 9 -10 6 0 13 5 16 10 3 6 -1 10 -9 10 -9 0
-16 -4 -16 -10z"/>
<path d="M4271 3064 c0 -11 3 -14 6 -6 3 7 2 16 -1 19 -3 4 -6 -2 -5 -13z"/>
<path d="M4625 3070 c-3 -5 -1 -10 4 -10 6 0 11 5 11 10 0 6 -2 10 -4 10 -3 0
-8 -4 -11 -10z"/>
<path d="M3821 3004 c0 -11 3 -14 6 -6 3 7 2 16 -1 19 -3 4 -6 -2 -5 -13z"/>
<path d="M4520 3004 c0 -8 5 -12 10 -9 6 3 10 10 10 16 0 5 -4 9 -10 9 -5 0
-10 -7 -10 -16z"/>
<path d="M4546 2937 c3 -10 9 -15 12 -12 3 3 0 11 -7 18 -10 9 -11 8 -5 -6z"/>
<path d="M2245 2910 c3 -5 8 -10 11 -10 2 0 4 5 4 10 0 6 -5 10 -11 10 -5 0
-7 -4 -4 -10z"/>
<path d="M4430 2884 c0 -10 5 -26 10 -34 8 -11 9 -7 4 15 -8 37 -14 45 -14 19z"/>
<path d="M4530 2890 c0 -5 5 -10 10 -10 6 0 10 5 10 10 0 6 -4 10 -10 10 -5 0
-10 -4 -10 -10z"/>
<path d="M2241 2864 c0 -11 3 -14 6 -6 3 7 2 16 -1 19 -3 4 -6 -2 -5 -13z"/>
<path d="M4471 2824 c0 -11 3 -14 6 -6 3 7 2 16 -1 19 -3 4 -6 -2 -5 -13z"/>
<path d="M4471 2764 c0 -11 3 -14 6 -6 3 7 2 16 -1 19 -3 4 -6 -2 -5 -13z"/>
<path d="M3990 2669 c0 -5 5 -7 10 -4 6 3 10 8 10 11 0 2 -4 4 -10 4 -5 0 -10
-5 -10 -11z"/>
<path d="M2331 2654 c0 -11 3 -14 6 -6 3 7 2 16 -1 19 -3 4 -6 -2 -5 -13z"/>
<path d="M4167 2521 c-3 -14 -1 -18 9 -14 8 3 14 11 14 19 0 21 -17 17 -23 -5z"/>
<path d="M4385 2510 c-3 -5 -1 -10 4 -10 6 0 11 5 11 10 0 6 -2 10 -4 10 -3 0
-8 -4 -11 -10z"/>
<path d="M4241 2434 c0 -11 3 -14 6 -6 3 7 2 16 -1 19 -3 4 -6 -2 -5 -13z"/>
<path d="M4300 2415 c0 -8 4 -15 10 -15 5 0 7 7 4 15 -4 8 -8 15 -10 15 -2 0
-4 -7 -4 -15z"/>
<path d="M4130 2400 c0 -5 5 -10 10 -10 6 0 10 5 10 10 0 6 -4 10 -10 10 -5 0
-10 -4 -10 -10z"/>
<path d="M2571 2204 c0 -11 3 -14 6 -6 3 7 2 16 -1 19 -3 4 -6 -2 -5 -13z"/>
<path d="M2595 2191 c-3 -5 -1 -12 5 -16 5 -3 10 1 10 9 0 18 -6 21 -15 7z"/>
<path d="M4200 2164 c0 -8 5 -12 10 -9 6 3 10 10 10 16 0 5 -4 9 -10 9 -5 0
-10 -7 -10 -16z"/>
<path d="M4221 2066 c-10 -12 -8 -17 8 -25 21 -12 33 2 23 27 -6 16 -17 15
-31 -2z"/>
<path d="M2800 1685 c0 -8 5 -15 10 -15 6 0 10 7 10 15 0 8 -4 15 -10 15 -5 0
-10 -7 -10 -15z"/>
<path d="M2886 1555 c-3 -8 -1 -15 4 -15 6 0 10 7 10 15 0 8 -2 15 -4 15 -2 0
-6 -7 -10 -15z"/>
<path d="M2880 1521 c0 -6 5 -13 10 -16 6 -3 10 1 10 9 0 9 -4 16 -10 16 -5 0
-10 -4 -10 -9z"/>
<path d="M3870 1459 c0 -5 5 -7 10 -4 6 3 10 8 10 11 0 2 -4 4 -10 4 -5 0 -10
-5 -10 -11z"/>
<path d="M3831 1294 c0 -11 3 -14 6 -6 3 7 2 16 -1 19 -3 4 -6 -2 -5 -13z"/>
<path d="M3072 1150 c7 -10 14 -18 15 -16 6 6 -9 36 -18 36 -5 0 -4 -9 3 -20z"/>
<path d="M3808 1143 c6 -2 18 -2 25 0 6 3 1 5 -13 5 -14 0 -19 -2 -12 -5z"/>
<path d="M3731 1092 c-8 -14 -6 -18 10 -18 10 0 19 6 19 13 0 21 -19 24 -29 5z"/>
<path d="M3121 1054 c0 -11 3 -14 6 -6 3 7 2 16 -1 19 -3 4 -6 -2 -5 -13z"/>
<path d="M3108 903 c6 -2 18 -2 25 0 6 3 1 5 -13 5 -14 0 -19 -2 -12 -5z"/>
<path d="M3201 864 c0 -11 3 -14 6 -6 3 7 2 16 -1 19 -3 4 -6 -2 -5 -13z"/>
<path d="M3592 840 c0 -14 2 -19 5 -12 2 6 2 18 0 25 -3 6 -5 1 -5 -13z"/>
<path d="M3095 710 c-19 -7 -19 -8 -2 -15 19 -8 31 -2 26 13 -2 5 -13 6 -24 2z"/>
<path d="M3280 689 c0 -5 5 -7 10 -4 6 3 10 8 10 11 0 2 -4 4 -10 4 -5 0 -10
-5 -10 -11z"/>
<path d="M3500 685 c0 -8 2 -15 4 -15 2 0 6 7 10 15 3 8 1 15 -4 15 -6 0 -10
-7 -10 -15z"/>
<path d="M3501 644 c0 -11 3 -14 6 -6 3 7 2 16 -1 19 -3 4 -6 -2 -5 -13z"/>
</g>
</svg>
